<mxfile><diagram id="ABQ3qcqzDXvqZ6bbKgx4" name="Page-1"><mxGraphModel dx="1074" dy="741" grid="1" gridSize="10" guides="1" tooltips="1" connect="1" arrows="1" fold="1" page="1" pageScale="1" pageWidth="827" pageHeight="1169" math="0" shadow="0"><root><mxCell id="0"/><mxCell id="1" parent="0"/><mxCell id="4" value="" style="edgeStyle=none;html=1;" edge="1" parent="1" source="2" target="3"><mxGeometry relative="1" as="geometry"/></mxCell><mxCell id="2" value="Start" style="strokeWidth=2;html=1;shape=mxgraph.flowchart.start_1;whiteSpace=wrap;" vertex="1" parent="1"><mxGeometry x="364" y="80" width="100" height="60" as="geometry"/></mxCell><mxCell id="6" value="" style="edgeStyle=none;html=1;" edge="1" parent="1" source="3" target="5"><mxGeometry relative="1" as="geometry"/></mxCell><mxCell id="3" value="this.stackArray.splice(0)" style="rounded=0;whiteSpace=wrap;html=1;" vertex="1" parent="1"><mxGeometry x="341" y="240" width="146" height="60" as="geometry"/></mxCell><mxCell id="5" value="End of Function" style="strokeWidth=2;html=1;shape=mxgraph.flowchart.terminator;whiteSpace=wrap;" vertex="1" parent="1"><mxGeometry x="364" y="370" width="100" height="60" as="geometry"/></mxCell></root></mxGraphModel></diagram></mxfile>